<svg xmlns="http://www.w3.org/2000/svg" viewBox="0 0 128 128" width="100%" height="100%">
  <defs>
    <linearGradient id="agr-grad" x1="0%" y1="0%" x2="100%" y2="100%">
      <stop offset="0%" stop-color="#1D976C" />
      <stop offset="100%" stop-color="#93F9B9" />
    </linearGradient>
    <filter id="shadow" x="-10%" y="-10%" width="120%" height="120%">
      <feDropShadow dx="0" dy="4" stdDeviation="3" flood-color="#000000" flood-opacity="0.15" />
    </filter>
  </defs>
  <circle cx="64" cy="64" r="60" fill="url(#agr-grad)" />
  <g filter="url(#shadow)">
    <path d="M28,110 C28,90 40,78 64,78 C88,78 100,90 100,110 Z" fill="#FFFFFF" />
    <circle cx="64" cy="50" r="20" fill="#FFFFFF" />
    <path d="M38,36 C38,30 46,26 64,26 C82,26 90,30 90,36 Z" fill="#FBBF24" />
    <ellipse cx="64" cy="36" rx="30" ry="3" fill="#FBBF24" />
    <rect x="48" y="34" width="32" height="3" fill="#D97706" />
    <path d="M64,96 C64,96 64,84 72,76" fill="none" stroke="#059669" stroke-width="3" stroke-linecap="round" />
    <path d="M64,96 C64,96 64,88 58,82" fill="none" stroke="#059669" stroke-width="3" stroke-linecap="round" />
  </g>
</svg>
